<?xml version="1.0" encoding="UTF-8"?> <svg xmlns="http://www.w3.org/2000/svg" xmlns:xlink="http://www.w3.org/1999/xlink" width="3400px" height="6150px" viewBox="0 0 3400 6150"><!-- Generator: Sketch 56.3 (81716) - https://sketch.com --><title>bg-diagonal-shapes</title><desc>Created with Sketch.</desc><g id="bg-diagonal-shapes" stroke="none" stroke-width="1" fill="none" fill-rule="evenodd"><g transform="translate(-8306.000000, -3196.000000)"><rect id="bg-white" fill="#FFFFFF" x="8225" y="3159" width="3000" height="6150"></rect><polygon id="Rectangle" fill="#F3F3F3" points="8412.36 6466.54919 9808.4008 3180 11812.36 3178 11812.36 9330 8412.36 9330"></polygon><path d="M9343.59065,1916.73776 L6582.76401,9327.88551 C6552.19141,9388.72658 6504.51272,9419.14712 6439,9419.14712 L556.407164,9419.14712 C455.226415,9419.14712 405,9378.83074 405,9297.46498 C405,9251.65092 435.208641,9157.82373 495.625923,9015.98341 L4458.41728,-313.22477 C4488.62592,-374.432351 4536.66858,-404.852885 4602.1813,-404.852885 L9267.88707,1543.26157 C9368.70386,1543.26157 9419.29423,1583.94445 9419.29423,1665.31022 C9419.29423,1711.12427 9394.18102,1794.68911 9343.59065,1916.73776 Z" id="Fill-28" fill="#FAFAFA" transform="translate(4912.147115, 4507.147115) rotate(-270.000000) translate(-4912.147115, -4507.147115) "></path><path d="M11865.568,1171.823 L7925.78272,10534.7384 C7895.21012,10595.5795 7847.53142,10626 7782.0187,10626 L6806.60716,10626 C6705.42642,10626 6655.2,10585.6836 6655.2,10504.3179 C6655.2,10458.5038 6743.36372,10395.0971 6803.78101,10253.2568 L10766.5724,924.048649 C10796.781,862.841068 10786.8686,802 10852.3813,802 L11827.7928,802 C11928.6096,802 11979.2,842.682883 11979.2,924.048649 C11979.2,969.862707 11916.1583,1049.77435 11865.568,1171.823 Z" id="Fill-28" fill="#EDEDED"></path><path d="M14865.8871,2664.31685 L10888.1734,12023.579 C10857.6008,12084.4201 10809.9221,12114.8406 10744.4094,12114.8406 L4861.81652,12114.8406 C4760.63577,12114.8406 4710.40935,12074.5243 4710.40935,11993.1585 C4710.40935,11947.3445 4740.61799,11853.5173 4801.03527,11711.6769 L8763.82663,2382.46876 C8794.03527,2321.26118 8842.07793,2290.84065 8907.59065,2290.84065 L14790.1835,2290.84065 C14891.0003,2290.84065 14941.5906,2331.52353 14941.5906,2412.8893 C14941.5906,2458.70336 14916.4774,2542.2682 14865.8871,2664.31685 Z" id="Fill-28" fill="#FFFFFF" opacity="0.35" transform="translate(9826.000000, 7202.840648) rotate(-270.000000) translate(-9826.000000, -7202.840648) "></path></g></g></svg> 